<svg xmlns="http://www.w3.org/2000/svg" viewBox="0 0 94 76" width="94" height="76">
	<style>
		tspan { white-space:pre }
		.shp0 { fill: #ffffff } 
	</style>
	<g id="4 option">
		<g id="2">
			<path id="Forma 1" class="shp0" d="M75.29 1L63.05 19.42L50.4 1L75.29 1ZM61.11 23.63L33.94 23.63L47.52 75.03L61.11 23.63ZM34.85 20.61L60.2 20.61L47.52 2.16L34.85 20.61ZM32 19.42L44.65 1L19.75 1L32 19.42ZM44.65 76L30.81 23.63L1 23.63L44.65 76ZM1.04 20.61L29.16 20.61L16.91 2.19L1.04 20.61ZM78.12 2.22L65.89 20.61L93.96 20.61L78.12 2.22ZM64.24 23.63L50.4 75.99L94 23.63L64.24 23.63Z" />
		</g>
	</g>
</svg>